<svg width="27" height="27" viewBox="0 0 27 27" fill="none" xmlns="http://www.w3.org/2000/svg">
<path d="M13.5 8.4375C13.8106 8.4375 14.0625 8.18566 14.0625 7.875C14.0625 7.56434 13.8106 7.3125 13.5 7.3125C13.1894 7.3125 12.9375 7.56434 12.9375 7.875C12.9375 8.18566 13.1894 8.4375 13.5 8.4375Z" fill="#ED1B26" stroke="#ED1B26" stroke-width="1.5" stroke-linecap="round" stroke-linejoin="round"/>
<path d="M13.5 19.6875C13.8106 19.6875 14.0625 19.4356 14.0625 19.125C14.0625 18.8144 13.8106 18.5625 13.5 18.5625C13.1894 18.5625 12.9375 18.8144 12.9375 19.125C12.9375 19.4356 13.1894 19.6875 13.5 19.6875Z" fill="#ED1B26" stroke="#ED1B26" stroke-width="1.5" stroke-linecap="round" stroke-linejoin="round"/>
<path d="M13.5 14.0625C13.8106 14.0625 14.0625 13.8106 14.0625 13.5C14.0625 13.1894 13.8106 12.9375 13.5 12.9375C13.1894 12.9375 12.9375 13.1894 12.9375 13.5C12.9375 13.8106 13.1894 14.0625 13.5 14.0625Z" fill="#ED1B26" stroke="#ED1B26" stroke-width="1.5" stroke-linecap="round" stroke-linejoin="round"/>
<path d="M13.5 24.75C19.7131 24.75 24.75 19.7131 24.75 13.5C24.75 7.28679 19.7131 2.25 13.5 2.25C7.28679 2.25 2.25 7.28679 2.25 13.5C2.25 19.7131 7.28679 24.75 13.5 24.75Z" stroke="#ED1B26" stroke-width="1.5" stroke-linecap="round" stroke-linejoin="round"/>
</svg>
